<svg width="182" height="52" viewBox="0 0 182 52" fill="none" xmlns="http://www.w3.org/2000/svg">
<path d="M55.8434 41V15.2727H50.8611C49.9448 15.2727 49.2147 15.559 48.6706 16.1317C48.1552 16.6757 47.8975 17.4775 47.8975 18.5369V19.9543H52.8368V24.7647H47.8975V41H42.271V24.7647H38.4914V19.9543H42.271V18.6228C42.271 15.8454 43.0012 13.7265 44.4615 12.2661C45.9218 10.8058 48.0407 10.0757 50.8182 10.0757H61.4699V41H55.8434ZM76.9042 38.7666H76.5606C75.902 39.5683 75.1003 40.2555 74.1554 40.8282C73.2391 41.4009 72.0508 41.6872 70.5905 41.6872C69.5024 41.6872 68.4716 41.5011 67.498 41.1289C66.5531 40.7852 65.7227 40.2985 65.0069 39.6685C64.2911 39.0386 63.7327 38.2798 63.3318 37.3922C62.931 36.5045 62.7305 35.531 62.7305 34.4715C62.7305 33.3835 62.9453 32.4099 63.3748 31.5509C63.8043 30.6633 64.4056 29.9045 65.1787 29.2745C65.9518 28.6446 66.8538 28.1721 67.8846 27.8572C68.944 27.5136 70.0894 27.3418 71.3206 27.3418C72.695 27.3418 73.8261 27.4563 74.7137 27.6854C75.6014 27.8858 76.3315 28.1005 76.9042 28.3296V27.6854C76.9042 26.5686 76.4604 25.6524 75.5727 24.9365C74.6851 24.1921 73.5827 23.8198 72.2655 23.8198C70.3184 23.8198 68.672 24.6359 67.3262 26.268L63.2459 23.4762C65.4794 20.6701 68.5288 19.2671 72.3944 19.2671C75.6586 19.2671 78.1497 20.0402 79.8678 21.5864C81.5858 23.104 82.4448 25.366 82.4448 28.3726V41H76.9042V38.7666ZM76.9042 32.4529C76.2456 32.1379 75.5584 31.8945 74.8426 31.7227C74.1554 31.5223 73.3966 31.4221 72.5662 31.4221C71.2204 31.4221 70.1753 31.7227 69.4308 32.324C68.715 32.8967 68.357 33.6125 68.357 34.4715C68.357 35.3305 68.7006 36.0177 69.3879 36.5332C70.1037 37.0486 70.9198 37.3063 71.836 37.3063C72.5805 37.3063 73.2677 37.1774 73.8977 36.9197C74.5276 36.6334 75.0573 36.2755 75.4868 35.8459C75.945 35.3878 76.2886 34.8724 76.5176 34.2997C76.7753 33.6984 76.9042 33.0828 76.9042 32.4529ZM94.2679 50.9645C92.779 50.9645 91.4475 50.7641 90.2735 50.3632C89.1282 49.991 88.126 49.4899 87.267 48.8599C86.408 48.2586 85.6921 47.5857 85.1195 46.8413C84.5468 46.0968 84.1316 45.3523 83.8739 44.6078L89.2427 42.4603C89.6436 43.577 90.3021 44.436 91.2184 45.0373C92.1347 45.6673 93.1512 45.9823 94.2679 45.9823C96.0432 45.9823 97.4462 45.4239 98.4771 44.3072C99.5079 43.2191 100.023 41.6872 100.023 39.7115V38.2512H99.6797C99.0211 39.1674 98.1478 39.8976 97.0597 40.4416C96.0002 40.957 94.7404 41.2148 93.28 41.2148C92.0202 41.2148 90.7889 40.957 89.5863 40.4416C88.4123 39.9262 87.3672 39.1961 86.4509 38.2512C85.5346 37.2776 84.7902 36.118 84.2175 34.7722C83.6448 33.4264 83.3585 31.9231 83.3585 30.2624C83.3585 28.6016 83.6448 27.0984 84.2175 25.7526C84.7902 24.3782 85.5346 23.2185 86.4509 22.2736C87.3672 21.3001 88.4123 20.5556 89.5863 20.0402C90.7889 19.5248 92.0202 19.2671 93.28 19.2671C94.7404 19.2671 96.0002 19.5391 97.0597 20.0831C98.1478 20.5985 99.0211 21.3144 99.6797 22.2307H100.023V19.9543H105.392V39.4967C105.392 41.272 105.12 42.8612 104.576 44.2642C104.032 45.6959 103.273 46.8985 102.3 47.8721C101.326 48.8742 100.152 49.633 98.7777 50.1484C97.4319 50.6925 95.9287 50.9645 94.2679 50.9645ZM94.4827 36.1466C95.1699 36.1466 95.8428 36.0177 96.5013 35.76C97.1885 35.5023 97.7898 35.1301 98.3052 34.6433C98.8207 34.1279 99.2358 33.5123 99.5508 32.7965C99.8658 32.052 100.023 31.2073 100.023 30.2624C100.023 29.3175 99.8658 28.4728 99.5508 27.7283C99.2358 26.9838 98.8207 26.3682 98.3052 25.8814C97.7898 25.366 97.1885 24.9795 96.5013 24.7218C95.8428 24.4641 95.1699 24.3352 94.4827 24.3352C93.7955 24.3352 93.1226 24.4641 92.464 24.7218C91.8054 24.9795 91.2184 25.366 90.703 25.8814C90.1876 26.3968 89.7724 27.0268 89.4575 27.7713C89.1425 28.4871 88.985 29.3175 88.985 30.2624C88.985 31.2073 89.1425 32.052 89.4575 32.7965C89.7724 33.5123 90.1876 34.1279 90.703 34.6433C91.2184 35.1301 91.8054 35.5023 92.464 35.76C93.1226 36.0177 93.7955 36.1466 94.4827 36.1466ZM116.164 41.6872C114.789 41.6872 113.558 41.5154 112.47 41.1718C111.411 40.8282 110.48 40.3844 109.678 39.8403C108.905 39.2677 108.247 38.6234 107.703 37.9076C107.159 37.1631 106.743 36.4186 106.457 35.6741L111.482 33.5266C111.969 34.6147 112.613 35.4308 113.415 35.9748C114.245 36.4902 115.162 36.7479 116.164 36.7479C117.195 36.7479 118.011 36.5618 118.612 36.1895C119.213 35.8173 119.514 35.3735 119.514 34.8581C119.514 34.2854 119.256 33.8273 118.741 33.4837C118.254 33.1114 117.395 32.7821 116.164 32.4958L113.2 31.8516C112.542 31.7084 111.855 31.4793 111.139 31.1643C110.452 30.8494 109.822 30.4485 109.249 29.9617C108.676 29.475 108.204 28.888 107.832 28.2008C107.459 27.5136 107.273 26.7118 107.273 25.7955C107.273 24.7647 107.488 23.8485 107.917 23.0467C108.376 22.245 108.991 21.5721 109.764 21.028C110.537 20.4554 111.439 20.0259 112.47 19.7395C113.53 19.4246 114.661 19.2671 115.863 19.2671C117.868 19.2671 119.657 19.6679 121.232 20.4697C122.807 21.2428 123.967 22.4884 124.711 24.2064L119.858 26.1821C119.457 25.3517 118.87 24.7504 118.097 24.3782C117.324 24.0059 116.55 23.8198 115.777 23.8198C114.976 23.8198 114.274 23.9916 113.673 24.3352C113.071 24.6502 112.771 25.0654 112.771 25.5808C112.771 26.0676 113.014 26.4541 113.501 26.7405C114.016 27.0268 114.704 27.2845 115.563 27.5136L118.784 28.2867C120.931 28.8021 122.521 29.6324 123.551 30.7778C124.611 31.8945 125.141 33.226 125.141 34.7722C125.141 35.6885 124.926 36.5618 124.496 37.3922C124.067 38.2225 123.451 38.967 122.649 39.6256C121.876 40.2555 120.931 40.7566 119.815 41.1289C118.727 41.5011 117.51 41.6872 116.164 41.6872ZM126.446 10.2475H132.073V18.8805L131.729 22.7031H132.073C132.674 21.7009 133.533 20.8849 134.65 20.2549C135.795 19.5964 137.069 19.2671 138.472 19.2671C141.193 19.2671 143.197 20.0688 144.485 21.6723C145.803 23.2758 146.461 25.4663 146.461 28.2437V41H140.835V28.9309C140.835 27.4706 140.491 26.3682 139.804 25.6237C139.117 24.8506 138.157 24.4641 136.926 24.4641C136.153 24.4641 135.466 24.6359 134.864 24.9795C134.263 25.2945 133.748 25.7383 133.318 26.3109C132.917 26.8836 132.602 27.5565 132.373 28.3296C132.173 29.0741 132.073 29.8758 132.073 30.7348V41H126.446V10.2475ZM152.097 16.9048C151.61 16.9048 151.138 16.8189 150.68 16.6471C150.25 16.4467 149.864 16.189 149.52 15.874C149.205 15.5304 148.947 15.1438 148.747 14.7143C148.575 14.2848 148.489 13.8124 148.489 13.297C148.489 12.7816 148.575 12.3091 148.747 11.8796C148.947 11.4501 149.205 11.0779 149.52 10.7629C149.864 10.4193 150.25 10.1616 150.68 9.98977C151.138 9.78934 151.61 9.68912 152.097 9.68912C153.099 9.68912 153.958 10.047 154.674 10.7629C155.39 11.4501 155.748 12.2948 155.748 13.297C155.748 14.2991 155.39 15.1581 154.674 15.874C153.958 16.5612 153.099 16.9048 152.097 16.9048ZM149.305 41V19.9543H154.932V41H149.305ZM157.757 19.9543H163.04V22.4884H163.384C163.899 21.6007 164.701 20.8419 165.789 20.212C166.877 19.582 168.223 19.2671 169.826 19.2671C171.172 19.2671 172.446 19.5534 173.649 20.1261C174.88 20.6701 175.954 21.4432 176.87 22.4454C177.815 23.4189 178.56 24.5929 179.104 25.9673C179.648 27.3418 179.92 28.845 179.92 30.4771C179.92 32.1093 179.648 33.6125 179.104 34.9869C178.56 36.3614 177.815 37.5496 176.87 38.5518C175.954 39.5254 174.88 40.2985 173.649 40.8711C172.446 41.4152 171.172 41.6872 169.826 41.6872C168.223 41.6872 166.877 41.3722 165.789 40.7423C164.701 40.1124 163.899 39.3536 163.384 38.4659H163.04L163.384 41.4725V50.2773H157.757V19.9543ZM168.667 36.4902C169.411 36.4902 170.113 36.347 170.771 36.0607C171.459 35.7744 172.06 35.3735 172.575 34.8581C173.091 34.3427 173.506 33.7127 173.821 32.9683C174.136 32.2238 174.293 31.3934 174.293 30.4771C174.293 29.5609 174.136 28.7305 173.821 27.986C173.506 27.2415 173.091 26.6116 172.575 26.0962C172.06 25.5808 171.459 25.1799 170.771 24.8936C170.113 24.6072 169.411 24.4641 168.667 24.4641C167.922 24.4641 167.206 24.6072 166.519 24.8936C165.861 25.1513 165.274 25.5378 164.758 26.0532C164.243 26.5686 163.828 27.1986 163.513 27.9431C163.198 28.6875 163.04 29.5322 163.04 30.4771C163.04 31.422 163.198 32.2667 163.513 33.0112C163.828 33.7557 164.243 34.3856 164.758 34.901C165.274 35.4164 165.861 35.8173 166.519 36.1036C167.206 36.3614 167.922 36.4902 168.667 36.4902Z" fill="#1C2B33"/>
<rect x="2.90642" y="14.8552" width="25.189" height="25.189" rx="5.48991" stroke="#005AFF" stroke-width="5.81284"/>
</svg>
