<svg width="140" height="40" viewBox="0 0 140 40" fill="none" xmlns="http://www.w3.org/2000/svg">
<path d="M42.9564 32V12.2098H39.1239C38.4191 12.2098 37.8574 12.43 37.4389 12.8705C37.0425 13.289 36.8442 13.9057 36.8442 14.7207V15.811H40.6437V19.5113H36.8442V32H32.5161V19.5113H29.6087V15.811H32.5161V14.7868C32.5161 12.6503 33.0778 11.0204 34.2011 9.89704C35.3244 8.77372 36.9544 8.21206 39.0909 8.21206H47.2845V32H42.9564ZM59.157 30.282H58.8927C58.3861 30.8987 57.7694 31.4273 57.0426 31.8678C56.3377 32.3084 55.4237 32.5286 54.3003 32.5286C53.4633 32.5286 52.6704 32.3855 51.9215 32.0991C51.1947 31.8348 50.5559 31.4604 50.0053 30.9758C49.4546 30.4912 49.0251 29.9075 48.7168 29.2247C48.4084 28.5419 48.2542 27.7931 48.2542 26.9781C48.2542 26.1411 48.4194 25.3922 48.7498 24.7315C49.0802 24.0487 49.5427 23.465 50.1374 22.9804C50.7321 22.4958 51.426 22.1324 52.2189 21.8901C53.0338 21.6258 53.9149 21.4937 54.862 21.4937C55.9192 21.4937 56.7893 21.5818 57.4721 21.758C58.1549 21.9122 58.7165 22.0773 59.157 22.2536V21.758C59.157 20.899 58.8156 20.1941 58.1328 19.6435C57.45 19.0708 56.602 18.7845 55.5888 18.7845C54.0911 18.7845 52.8246 19.4122 51.7894 20.6677L48.6507 18.5202C50.3687 16.3616 52.7145 15.2824 55.688 15.2824C58.1989 15.2824 60.1152 15.8771 61.4367 17.0665C62.7583 18.2338 63.419 19.9739 63.419 22.2866V32H59.157V30.282ZM59.157 25.4253C58.6504 25.183 58.1218 24.9958 57.5712 24.8636C57.0426 24.7094 56.4589 24.6323 55.8201 24.6323C54.7849 24.6323 53.981 24.8636 53.4083 25.3262C52.8576 25.7667 52.5823 26.3173 52.5823 26.9781C52.5823 27.6389 52.8466 28.1675 53.3752 28.564C53.9259 28.9604 54.5536 29.1587 55.2585 29.1587C55.8311 29.1587 56.3598 29.0595 56.8443 28.8613C57.3289 28.6411 57.7364 28.3657 58.0668 28.0353C58.4192 27.6829 58.6835 27.2865 58.8597 26.8459C59.0579 26.3834 59.157 25.9098 59.157 25.4253ZM72.5137 39.665C71.3684 39.665 70.3442 39.5108 69.4411 39.2025C68.5601 38.9161 67.7892 38.5307 67.1284 38.0461C66.4676 37.5836 65.917 37.066 65.4765 36.4933C65.036 35.9206 64.7166 35.3479 64.5184 34.7753L68.6482 33.1233C68.9566 33.9823 69.4632 34.6431 70.168 35.1056C70.8728 35.5902 71.6547 35.8325 72.5137 35.8325C73.8794 35.8325 74.9586 35.403 75.7516 34.544C76.5445 33.707 76.9409 32.5286 76.9409 31.0088V29.8855H76.6766C76.17 30.5903 75.4983 31.152 74.6613 31.5705C73.8463 31.967 72.8772 32.1652 71.7539 32.1652C70.7847 32.1652 69.8376 31.967 68.9125 31.5705C68.0095 31.174 67.2055 30.6124 66.5007 29.8855C65.7959 29.1366 65.2232 28.2446 64.7827 27.2094C64.3421 26.1742 64.1219 25.0178 64.1219 23.7403C64.1219 22.4628 64.3421 21.3064 64.7827 20.2712C65.2232 19.214 65.7959 18.3219 66.5007 17.5951C67.2055 16.8462 68.0095 16.2735 68.9125 15.8771C69.8376 15.4806 70.7847 15.2824 71.7539 15.2824C72.8772 15.2824 73.8463 15.4916 74.6613 15.9101C75.4983 16.3066 76.17 16.8572 76.6766 17.562H76.9409V15.811H81.0708V30.8436C81.0708 32.2092 80.8616 33.4317 80.4431 34.5109C80.0246 35.6122 79.4409 36.5373 78.692 37.2862C77.9431 38.0571 77.0401 38.6408 75.9828 39.0373C74.9476 39.4558 73.7912 39.665 72.5137 39.665ZM72.6789 28.2666C73.2076 28.2666 73.7252 28.1675 74.2318 27.9693C74.7604 27.771 75.2229 27.4847 75.6194 27.1103C76.0159 26.7138 76.3352 26.2402 76.5775 25.6896C76.8198 25.1169 76.9409 24.4672 76.9409 23.7403C76.9409 23.0134 76.8198 22.3637 76.5775 21.791C76.3352 21.2183 76.0159 20.7448 75.6194 20.3703C75.2229 19.9739 74.7604 19.6765 74.2318 19.4783C73.7252 19.2801 73.2076 19.1809 72.6789 19.1809C72.1503 19.1809 71.6327 19.2801 71.1261 19.4783C70.6195 19.6765 70.168 19.9739 69.7715 20.3703C69.3751 20.7668 69.0557 21.2514 68.8134 21.824C68.5711 22.3747 68.45 23.0134 68.45 23.7403C68.45 24.4672 68.5711 25.1169 68.8134 25.6896C69.0557 26.2402 69.3751 26.7138 69.7715 27.1103C70.168 27.4847 70.6195 27.771 71.1261 27.9693C71.6327 28.1675 72.1503 28.2666 72.6789 28.2666ZM89.3568 32.5286C88.2996 32.5286 87.3525 32.3965 86.5155 32.1322C85.7005 31.8678 84.9847 31.5264 84.368 31.108C83.7733 30.6674 83.2667 30.1719 82.8482 29.6212C82.4297 29.0485 82.1103 28.4759 81.8901 27.9032L85.7556 26.2512C86.13 27.0882 86.6256 27.716 87.2423 28.1345C87.8811 28.5309 88.5859 28.7292 89.3568 28.7292C90.1498 28.7292 90.7775 28.586 91.24 28.2997C91.7026 28.0133 91.9339 27.6719 91.9339 27.2755C91.9339 26.8349 91.7356 26.4825 91.3392 26.2182C90.9647 25.9319 90.3039 25.6786 89.3568 25.4583L87.0772 24.9627C86.5706 24.8526 86.0419 24.6764 85.4913 24.4341C84.9627 24.1918 84.4781 23.8835 84.0376 23.509C83.5971 23.1346 83.2336 22.6831 82.9473 22.1544C82.661 21.6258 82.5178 21.0091 82.5178 20.3043C82.5178 19.5113 82.683 18.8065 83.0134 18.1898C83.3658 17.5731 83.8393 17.0554 84.434 16.637C85.0287 16.1964 85.7226 15.866 86.5155 15.6458C87.3304 15.4035 88.2005 15.2824 89.1256 15.2824C90.6674 15.2824 92.044 15.5907 93.2554 16.2074C94.4668 16.8021 95.3589 17.7603 95.9316 19.0818L92.1982 20.6016C91.8898 19.9629 91.4383 19.5003 90.8436 19.214C90.2489 18.9276 89.6542 18.7845 89.0595 18.7845C88.4428 18.7845 87.9031 18.9166 87.4406 19.1809C86.978 19.4232 86.7468 19.7426 86.7468 20.1391C86.7468 20.5135 86.934 20.8109 87.3084 21.0311C87.7049 21.2514 88.2335 21.4496 88.8943 21.6258L91.3722 22.2205C93.0241 22.617 94.2466 23.2557 95.0395 24.1368C95.8545 24.9958 96.2619 26.02 96.2619 27.2094C96.2619 27.9142 96.0967 28.586 95.7664 29.2247C95.436 29.8635 94.9624 30.4362 94.3457 30.9428C93.751 31.4273 93.0241 31.8128 92.1651 32.0991C91.3281 32.3855 90.392 32.5286 89.3568 32.5286ZM97.2663 8.34421H101.594V14.985L101.33 17.9255H101.594C102.057 17.1546 102.718 16.5268 103.577 16.0423C104.458 15.5357 105.438 15.2824 106.517 15.2824C108.61 15.2824 110.151 15.8991 111.143 17.1325C112.156 18.366 112.662 20.051 112.662 22.1875V32H108.334V22.7161C108.334 21.5928 108.07 20.7448 107.541 20.1721C107.013 19.5774 106.275 19.2801 105.328 19.2801C104.733 19.2801 104.204 19.4122 103.742 19.6765C103.279 19.9188 102.883 20.2602 102.552 20.7007C102.244 21.1412 102.002 21.6589 101.826 22.2536C101.671 22.8262 101.594 23.4429 101.594 24.1037V32H97.2663V8.34421ZM116.998 13.4652C116.623 13.4652 116.26 13.3992 115.907 13.267C115.577 13.1128 115.28 12.9146 115.015 12.6723C114.773 12.408 114.575 12.1106 114.421 11.7802C114.288 11.4499 114.222 11.0864 114.222 10.69C114.222 10.2935 114.288 9.93008 114.421 9.59969C114.575 9.2693 114.773 8.98296 115.015 8.74068C115.28 8.47637 115.577 8.27814 115.907 8.14598C116.26 7.9918 116.623 7.91471 116.998 7.91471C117.769 7.91471 118.429 8.19003 118.98 8.74068C119.531 9.2693 119.806 9.91906 119.806 10.69C119.806 11.4609 119.531 12.1217 118.98 12.6723C118.429 13.2009 117.769 13.4652 116.998 13.4652ZM114.85 32V15.811H119.178V32H114.85ZM121.352 15.811H125.416V17.7603H125.68C126.076 17.0775 126.693 16.4938 127.53 16.0092C128.367 15.5246 129.402 15.2824 130.636 15.2824C131.671 15.2824 132.651 15.5026 133.576 15.9431C134.523 16.3616 135.349 16.9563 136.054 17.7272C136.781 18.4761 137.354 19.3792 137.772 20.4364C138.191 21.4937 138.4 22.65 138.4 23.9055C138.4 25.161 138.191 26.3173 137.772 27.3746C137.354 28.4318 136.781 29.3459 136.054 30.1168C135.349 30.8657 134.523 31.4604 133.576 31.9009C132.651 32.3194 131.671 32.5286 130.636 32.5286C129.402 32.5286 128.367 32.2863 127.53 31.8018C126.693 31.3172 126.076 30.7335 125.68 30.0507H125.416L125.68 32.3634V39.1364H121.352V15.811ZM129.744 28.5309C130.316 28.5309 130.856 28.4208 131.363 28.2005C131.891 27.9803 132.354 27.6719 132.75 27.2755C133.147 26.879 133.466 26.3944 133.708 25.8217C133.951 25.2491 134.072 24.6103 134.072 23.9055C134.072 23.2007 133.951 22.5619 133.708 21.9892C133.466 21.4166 133.147 20.932 132.75 20.5355C132.354 20.1391 131.891 19.8307 131.363 19.6104C130.856 19.3902 130.316 19.2801 129.744 19.2801C129.171 19.2801 128.62 19.3902 128.092 19.6104C127.585 19.8087 127.134 20.106 126.737 20.5025C126.341 20.899 126.021 21.3835 125.779 21.9562C125.537 22.5289 125.416 23.1786 125.416 23.9055C125.416 24.6323 125.537 25.2821 125.779 25.8548C126.021 26.4275 126.341 26.912 126.737 27.3085C127.134 27.705 127.585 28.0133 128.092 28.2336C128.62 28.4318 129.171 28.5309 129.744 28.5309Z" fill="white"/>
<rect x="2.23571" y="11.4271" width="19.3761" height="19.3761" rx="4.22301" stroke="#005AFF" stroke-width="4.47142"/>
</svg>
