<svg width="161" height="160" viewBox="0 0 161 160" fill="none" xmlns="http://www.w3.org/2000/svg">
<mask id="mask0_427_151" style="mask-type:alpha" maskUnits="userSpaceOnUse" x="0" y="0" width="161" height="160">
<rect x="0.5" width="160" height="160" fill="#D9D9D9"/>
</mask>
<g mask="url(#mask0_427_151)">
<path d="M71.0377 108.358L115.858 63.5382L108.833 56.5132L71.0377 94.3082L52.0377 75.3082L45.0127 82.3332L71.0377 108.358ZM80.511 143.333C71.751 143.333 63.5171 141.671 55.8093 138.347C48.1016 135.022 41.3971 130.51 35.696 124.812C29.9949 119.113 25.481 112.411 22.1543 104.707C18.8288 97.0021 17.166 88.7704 17.166 80.0115C17.166 71.2515 18.8282 63.0176 22.1527 55.3098C25.4771 47.6021 29.9888 40.8976 35.6877 35.1965C41.3866 29.4954 48.0882 24.9815 55.7927 21.6548C63.4971 18.3293 71.7288 16.6665 80.4877 16.6665C89.2477 16.6665 97.4816 18.3287 105.189 21.6532C112.897 24.9776 119.602 29.4893 125.303 35.1882C131.004 40.8871 135.518 47.5887 138.844 55.2932C142.17 62.9976 143.833 71.2293 143.833 79.9882C143.833 88.7482 142.17 96.9821 138.846 104.69C135.522 112.398 131.01 119.102 125.311 124.803C119.612 130.504 112.91 135.018 105.206 138.345C97.5016 141.67 89.2699 143.333 80.511 143.333Z" fill="#1C1B1F"/>
</g>
</svg>
